HIERARCHY
ROOT hips
{
  OFFSET 0 10.680822821525009 1.3929502295107734
  CHANNELS 6 Xposition Yposition Zposition Yrotation Xrotation Zrotation
  JOINT spine
  {
    OFFSET -7.042017322922631e-31 0.6058489940359625 0
    CHANNELS 3 Yrotation Xrotation Zrotation
    JOINT chest
    {
      OFFSET 0 1.2699794144455032 0
      CHANNELS 3 Yrotation Xrotation Zrotation
      JOINT upperChest
      {
        OFFSET 0 1.217799211677689 0
        CHANNELS 3 Yrotation Xrotation Zrotation
        JOINT neck
        {
          OFFSET 0 1.5248826104153006 0
          CHANNELS 3 Yrotation Xrotation Zrotation
          JOINT head
          {
            OFFSET 0 0.8197772727844447 0
            CHANNELS 3 Yrotation Xrotation Zrotation
            JOINT leftEye
            {
              OFFSET 0.2793952361220866 0.6769952096623495 0.1830357412467788
              CHANNELS 3 Yrotation Xrotation Zrotation
              End Site
              {
                OFFSET 0.2793952361220866 0.6769952096623495 0.1830357412467788
              }
            }
            JOINT rightEye
            {
              OFFSET -0.27939522230689573 0.676995205357064 0.18303631459760622
              CHANNELS 3 Yrotation Xrotation Zrotation
              End Site
              {
                OFFSET -0.27939522230689573 0.676995205357064 0.18303631459760622
              }
            }
          }
        }
        JOINT leftShoulder
        {
          OFFSET 0.41486978509200423 1.1670505408695453 0
          CHANNELS 3 Yrotation Xrotation Zrotation
          JOINT leftUpperArm
          {
            OFFSET 0.9737926108153417 0 0
            CHANNELS 3 Yrotation Xrotation Zrotation
            JOINT leftLowerArm
            {
              OFFSET 2.5269332222665284 0 0
              CHANNELS 3 Yrotation Xrotation Zrotation
              JOINT leftHand
              {
                OFFSET 2.4263782738425914 0 0
                CHANNELS 3 Yrotation Xrotation Zrotation
                JOINT leftIndexProximal
                {
                  OFFSET 0.724320348022514 0.08170607082582437 0.20360061616140124
                  CHANNELS 3 Yrotation Xrotation Zrotation
                  JOINT leftIndexIntermediate
                  {
                    OFFSET 0.36548960630744587 -0.010566596513783999 -0.01414783573280308
                    CHANNELS 3 Yrotation Xrotation Zrotation
                    JOINT leftIndexDistal
                    {
                      OFFSET 0.22502819650693362 -0.007863819831430696 -0.007567681939621526
                      CHANNELS 3 Yrotation Xrotation Zrotation
                      End Site
                      {
                        OFFSET 0.22502819650693362 -0.007863819831430696 -0.007567681939621526
                      }
                    }
                  }
                }
                JOINT leftLittleProximal
                {
                  OFFSET 0.6720322998298205 0.08170601055037707 -0.3230036039466837
                  CHANNELS 3 Yrotation Xrotation Zrotation
                  JOINT leftLittleIntermediate
                  {
                    OFFSET 0.34583592281688713 5.476543019078406e-8 1.3869203337180114e-7
                    CHANNELS 3 Yrotation Xrotation Zrotation
                    JOINT leftLittleDistal
                    {
                      OFFSET 0.19925728062053938 0.003098047439490381 0.0038303983709246925
                      CHANNELS 3 Yrotation Xrotation Zrotation
                      End Site
                      {
                        OFFSET 0.19925728062053938 0.003098047439490381 0.0038303983709246925
                      }
                    }
                  }
                }
                JOINT leftMiddleProximal
                {
                  OFFSET 0.7300436596551069 0.0817073395107144 0.022661722987926763
                  CHANNELS 3 Yrotation Xrotation Zrotation
                  JOINT leftMiddleIntermediate
                  {
                    OFFSET 0.40758254347686607 -0.0000012383587111308714 2.408460318820138e-7
                    CHANNELS 3 Yrotation Xrotation Zrotation
                    JOINT leftMiddleDistal
                    {
                      OFFSET 0.2514490105498507 0.0000013869132886590307 9.738618134136345e-8
                      CHANNELS 3 Yrotation Xrotation Zrotation
                      End Site
                      {
                        OFFSET 0.2514490105498507 0.0000013869132886590307 9.738618134136345e-8
                      }
                    }
                  }
                }
                JOINT leftRingProximal
                {
                  OFFSET 0.7217261161191838 0.08170601902187746 -0.15043395722184966
                  CHANNELS 3 Yrotation Xrotation Zrotation
                  JOINT leftRingIntermediate
                  {
                    OFFSET 0.37808807487521556 0.0000013754022405443322 2.2046919317952884e-7
                    CHANNELS 3 Yrotation Xrotation Zrotation
                    JOINT leftRingDistal
                    {
                      OFFSET 0.21812105442344254 -0.002713483731960231 -0.004991354517454624
                      CHANNELS 3 Yrotation Xrotation Zrotation
                      End Site
                      {
                        OFFSET 0.21812105442344254 -0.002713483731960231 -0.004991354517454624
                      }
                    }
                  }
                }
                JOINT leftThumbProximal
                {
                  OFFSET 0.10793587079521427 -0.1652791240518252 -0.07775251827190094
                  CHANNELS 3 Yrotation Xrotation Zrotation
                  JOINT leftThumbIntermediate
                  {
                    OFFSET 0.40355819082296684 -0.017484006740276614 0.3177776014416309
                    CHANNELS 3 Yrotation Xrotation Zrotation
                    JOINT leftThumbDistal
                    {
                      OFFSET 0.2318764658022603 -0.018510186824293617 0.21396001800186287
                      CHANNELS 3 Yrotation Xrotation Zrotation
                      End Site
                      {
                        OFFSET 0.2318764658022603 -0.018510186824293617 0.21396001800186287
                      }
                    }
                  }
                }
              }
            }
          }
        }
        JOINT rightShoulder
        {
          OFFSET -0.4148697850920044 1.1670505408695453 0
          CHANNELS 3 Yrotation Xrotation Zrotation
          JOINT rightUpperArm
          {
            OFFSET -0.9737926108153414 0 0
            CHANNELS 3 Yrotation Xrotation Zrotation
            JOINT rightLowerArm
            {
              OFFSET -2.5269332222665293 0 0
              CHANNELS 3 Yrotation Xrotation Zrotation
              JOINT rightHand
              {
                OFFSET -2.42637827384259 0 0
                CHANNELS 3 Yrotation Xrotation Zrotation
                JOINT rightIndexProximal
                {
                  OFFSET -0.724320348022514 0.08170607082582437 0.20360061616140124
                  CHANNELS 3 Yrotation Xrotation Zrotation
                  JOINT rightIndexIntermediate
                  {
                    OFFSET -0.36548960630744587 -0.010566596513783999 -0.01414783573280308
                    CHANNELS 3 Yrotation Xrotation Zrotation
                    JOINT rightIndexDistal
                    {
                      OFFSET -0.22502819650693362 -0.007863819831430696 -0.007567681939621526
                      CHANNELS 3 Yrotation Xrotation Zrotation
                      End Site
                      {
                        OFFSET -0.22502819650693362 -0.007863819831430696 -0.007567681939621526
                      }
                    }
                  }
                }
                JOINT rightLittleProximal
                {
                  OFFSET -0.6720322998298205 0.08170601055037707 -0.3230036039466837
                  CHANNELS 3 Yrotation Xrotation Zrotation
                  JOINT rightLittleIntermediate
                  {
                    OFFSET -0.34583592281688713 5.476543019078406e-8 1.3869203337180114e-7
                    CHANNELS 3 Yrotation Xrotation Zrotation
                    JOINT rightLittleDistal
                    {
                      OFFSET -0.19925728062053938 0.003098047439490381 0.0038303983709246925
                      CHANNELS 3 Yrotation Xrotation Zrotation
                      End Site
                      {
                        OFFSET -0.19925728062053938 0.003098047439490381 0.0038303983709246925
                      }
                    }
                  }
                }
                JOINT rightMiddleProximal
                {
                  OFFSET -0.7300436596551069 0.0817073395107144 0.022661722987926763
                  CHANNELS 3 Yrotation Xrotation Zrotation
                  JOINT rightMiddleIntermediate
                  {
                    OFFSET -0.40758254347686607 -0.0000012383587111308714 2.408460318820138e-7
                    CHANNELS 3 Yrotation Xrotation Zrotation
                    JOINT rightMiddleDistal
                    {
                      OFFSET -0.2514490105498507 0.0000013869132886590307 9.738618134136345e-8
                      CHANNELS 3 Yrotation Xrotation Zrotation
                      End Site
                      {
                        OFFSET -0.2514490105498507 0.0000013869132886590307 9.738618134136345e-8
                      }
                    }
                  }
                }
                JOINT rightRingProximal
                {
                  OFFSET -0.7217261161191838 0.08170601902187746 -0.15043395722184966
                  CHANNELS 3 Yrotation Xrotation Zrotation
                  JOINT rightRingIntermediate
                  {
                    OFFSET -0.37808807487521556 0.0000013754022405443322 2.2046919317952884e-7
                    CHANNELS 3 Yrotation Xrotation Zrotation
                    JOINT rightRingDistal
                    {
                      OFFSET -0.21812105442344254 -0.002713483731960231 -0.004991354517454624
                      CHANNELS 3 Yrotation Xrotation Zrotation
                      End Site
                      {
                        OFFSET -0.21812105442344254 -0.002713483731960231 -0.004991354517454624
                      }
                    }
                  }
                }
                JOINT rightThumbProximal
                {
                  OFFSET -0.10793587079521427 -0.1652791240518252 -0.07775251827190094
                  CHANNELS 3 Yrotation Xrotation Zrotation
                  JOINT rightThumbIntermediate
                  {
                    OFFSET -0.40355819082296684 -0.017484006740276614 0.3177776014416309
                    CHANNELS 3 Yrotation Xrotation Zrotation
                    JOINT rightThumbDistal
                    {
                      OFFSET -0.2318764658022603 -0.018510186824293617 0.21396001800186287
                      CHANNELS 3 Yrotation Xrotation Zrotation
                      End Site
                      {
                        OFFSET -0.2318764658022603 -0.018510186824293617 0.21396001800186287
                      }
                    }
                  }
                }
              }
            }
          }
        }
      }
    }
  }
  JOINT leftUpperLeg
  {
    OFFSET 0.8486251390888677 -0.4421577294694363 0
    CHANNELS 3 Yrotation Xrotation Zrotation
    JOINT leftLowerLeg
    {
      OFFSET 0 -4.10147812638609 0
      CHANNELS 3 Yrotation Xrotation Zrotation
      JOINT leftFoot
      {
        OFFSET -0.0002543926476658853 -4.77292286812444 0.007402811231737388
        CHANNELS 3 Yrotation Xrotation Zrotation
        JOINT leftToes
        {
          OFFSET 0 -0.7027875951174846 1.2062924140498823
          CHANNELS 3 Yrotation Xrotation Zrotation
          End Site
          {
            OFFSET 0 -0.7027875951174846 1.2062924140498823
          }
        }
      }
    }
  }
  JOINT rightUpperLeg
  {
    OFFSET -0.8486251390888677 -0.4421577294694363 0
    CHANNELS 3 Yrotation Xrotation Zrotation
    JOINT rightLowerLeg
    {
      OFFSET 0 -4.10147812638609 0
      CHANNELS 3 Yrotation Xrotation Zrotation
      JOINT rightFoot
      {
        OFFSET 0.0002543926476658853 -4.77292286812444 0.007402811231737388
        CHANNELS 3 Yrotation Xrotation Zrotation
        JOINT rightToes
        {
          OFFSET 0 -0.7027875951174846 1.2062924140498823
          CHANNELS 3 Yrotation Xrotation Zrotation
          End Site
          {
            OFFSET 0 -0.7027875951174846 1.2062924140498823
          }
        }
      }
    }
  }
}
MOTION
Frames: 4
Frame Time: 0.03333333333333333
0.050562478601932526 -0.4362301548990324 -0.05466609075665474 -0.9026708873215705 -12.049117527380082 -5.174418852609392 1.3288923148084402 4.799240031047804 -0.7909559623960079 3.7841731229863513 11.463201410131823 1.2985668289478016 0 0 0 0.06521581523606677 0.686051639398878 3.4026735810683553 5.655704860020161 2.1424482652616588 0.4097528379830667 0 0 0 0 0 0 11.452105531808277 -0.1711196517106836 -8.862920085760054 -23.387085048431604 6.043562621740039 -54.68089600352058 -63.486111204452094 -6.849494079566352 5.150854681018996 -0.1367454767922113 10.620026854813299 8.173230045953607 2.1208116312674834 4.241626182193869 -15.627143108835082 4.146127545366068 2.110142705525869 -53.934094685913244 4.205778966391214 2.1937602969584864 -55.079949125639686 15.444148592419904 -10.44121545201972 -41.78314965122461 4.798970235879842 3.3166494767235393 -69.28346336731335 4.7905557797931095 3.2945862607952785 -69.0200361629179 4.7087765320875885 0.6395848330540236 -27.028337137296383 4.08210214636023 2.0241979918531596 -52.73852611872338 4.726433453259571 3.1356622304457082 -67.10777859168918 6.490563733182558 2.2228447788619263 -42.198817242682324 4.10010883966971 2.0480006479537836 -53.071466646419054 4.64248979822086 2.947758251376984 -64.81180174146152 18.918708200259726 8.102178705240762 15.808858175094555 2.5323400357719876 -3.309793740966685 -1.9904904101004046 -7.029119643385953 -11.114377522002142 12.421543494697044 2.6517474432092456 -0.008438090102825006 18.8055873045159 21.00272465250788 -22.64290154896638 38.53950403399637 116.14375459819382 -6.225566507554282 -12.319740162892437 18.543947456917344 14.100429853546249 18.94934188158072 9.65960323973103 8.038398546985546 14.82358475200904 -2.5754217908250125 0.9634136982560717 41.01397334168567 -2.8337080921153195 1.2094594417643865 46.21994330845647 -16.930892161725854 -8.140912720573546 36.705639950103844 -3.461712430365164 2.074803006991783 61.86410640976719 -3.279830086992569 1.7690733919104875 56.67353335058287 -0.8134326301283109 -1.2715489971390033 20.854804083841866 -2.992840177898939 1.385865574041507 49.68622914971237 -3.4618584269962622 2.0751248772600377 61.869233913032836 -5.811792146793375 1.8789542575157216 32.29629472898065 -3.054812961675263 1.4607424318050586 51.103995756192106 -3.1696369345414546 1.6102288445820903 53.85370795944285 -16.5848882414651 17.790186214510566 -1.593337013099257 -11.740184002511812 5.153616525073051 -3.522662342368 -24.633896269335114 5.246804432182249 -24.380770053085197 11.253151090448297 -7.607965654646489 16.41964163787841 -1.0812811065290802 33.5340352716322 8.945519475070808 1.4704500529563422 -17.642047413291323 -7.5947868183610945 -0.0000066885076213946225 0.005667476205085837 6.286657030610527e-8 -2.335426886435562 4.886522146846599 1.0689243229585526 0.8212249003269266 27.427896596294666 2.4366951941429233 -0.10325025474218759 -18.156641787295463 0.7912646353204678 -9.913876990367579e-9 -1.5640311439279033 -5.332142604168797e-7
0.06715481728315353 -0.39752814379063395 -0.052683208137750626 -2.1254099089193277 -11.006327593373532 -5.152657266834794 1.4153215882916579 3.9739817072461814 -0.42865035492983644 4.12578440842352 10.90505563304744 1.245171090578972 0 0 0 0.010867058196979187 0.2940036881062405 3.6457369776343933 5.7331045465429264 1.204816550757925 0.5461506047434728 0 0 0 0 0 0 12.309314528554143 -0.2746432784350072 -7.727243878229505 -25.257185872784728 8.211023469897667 -55.07238294882202 -63.189670317870544 -6.834209407060779 5.111764394522221 1.402905311288792 11.508157248108626 8.136067262026277 2.121007247069538 4.241557692712882 -15.638472829938024 4.146720695138223 2.110979544505199 -53.94549678935958 4.206360249129381 2.1945796666329085 -55.09130268221145 15.4452135647584 -10.44104442671128 -41.79490727929379 4.799309325889516 3.31760666658772 -69.29481395551764 4.790924395150481 3.2955361602705966 -69.03140251579993 4.709687535152685 0.640049421606087 -27.03970121668214 4.082703752676569 2.0250070205329465 -52.74995269415819 4.72683632102116 3.1365818412316226 -67.11912254460454 6.491146698336706 2.223653697969473 -42.21003021690675 4.100713020357299 2.0488233577014836 -53.082868033707705 4.642923769383185 2.948643933126057 -64.82298988215267 18.918694029105644 8.102176118095723 15.808851536991568 2.532354559977145 -3.309783478564911 -1.9904919057975918 -7.029139925148564 -11.114391443487701 12.42154169415797 2.7258804885990875 -0.030299757772035082 19.184975707436482 21.47220850894954 -22.999274541782984 38.230685725786415 116.53420629177428 -6.196753265075433 -12.366952697566514 18.604082718586724 13.35281548739348 18.630277200096884 9.658358737501612 8.038577894104854 14.840688159332794 -2.5763259013477495 0.9641893546305079 41.03122711378899 -2.8345161193705644 1.2103106304141453 46.237091985194844 -16.92746563866925 -8.143458725001754 36.72577386409986 -3.462112911986895 2.075601809237846 61.87714674160463 -3.280456332014237 1.7700261240370583 56.69035428003154 -0.8150066938882391 -1.2719955240293586 20.87207916730109 -2.9936107481908656 1.3867563206773783 49.70344382396928 -3.4624149325429596 2.076178484906985 61.88648429953101 -5.807977983219673 1.8762452733911927 32.31487034135343 -3.055451878415524 1.4615626413669782 51.11921609380213 -3.170264612123038 1.6110848774338673 53.869418369345354 -16.584870030774518 17.79018800781034 -1.5933134851398918 -11.74017742966679 5.153610095779955 -3.5226377465296306 -24.633885487828646 5.246819864770162 -24.380780693522517 11.309980770442056 -7.4612336096212335 16.447128878751737 0.8203873639534373 31.748170047380487 10.014926069159076 1.3283581422706803 -17.25988932727204 -6.970589585936002 0.000012800498843007284 0.005657823727008759 -0.000007617587438950275 -2.1129861475364615 4.351495903366778 1.0190585474655909 1.9918767033751952 25.74616893145628 2.7532394906452127 -0.17807324235939137 -16.865722397607353 1.198881879120167 0.0000011004862414757907 -2.009795084864444 -1.5048512892964002e-7
0.10788159817457199 -0.32637736406651285 -0.05343049019575119 -4.626419731413157 -8.883115833956204 -5.225221047079081 1.6056492716264534 2.5755786405430463 0.49856904545478287 4.89615158178746 9.841335730341221 1.0315109218308929 0 0 0 -0.13268496451969408 -0.6420497783787025 4.170513733531931 5.677220010352128 -1.2548247363801732 1.1124025580307166 0 0 0 0 0 0 14.037269752034147 -0.5217989275956527 -5.504685215546966 -29.52991141916203 12.410719359754276 -55.690779455582806 -63.142472955947916 -6.831787121571595 5.105542627168584 3.93245042810306 14.163525945333308 6.739413937675369 2.126016514786145 4.2430811570403755 -15.698852241456335 4.149891908304098 2.115340811403098 -54.00593937487171 4.209462256118296 2.1990195644493107 -55.15187847870982 15.452806542491746 -10.437827953024202 -41.857159195377214 4.801252087163774 3.3226919537307453 -69.35557854310709 4.792851018605089 3.300590547233975 -69.09182691766536 4.714512273273183 0.6425509750013755 -27.100368001847126 4.085978330120994 2.0293035505237347 -52.810284834372126 4.728968536797237 3.1416149183159963 -67.17998908211602 6.491723955722003 2.2249697143968192 -42.27107806078856 4.103942531187985 2.0531111944775042 -53.14286319216688 4.6452228144600625 2.9535481093638816 -64.88329056977514 18.92582378732016 8.104246701828115 15.811268803961424 2.5323294186588488 -3.3097800577643435 -1.9905087858085206 -7.021597069757008 -11.11189515773118 12.422306292428457 2.698909988333499 -0.05379965709493515 20.11445320158624 22.43830812403146 -23.63086634828392 37.49729218657187 117.52498893547023 -6.122233438737426 -12.48590444625627 18.66609839267408 11.833333599782241 17.832552567441404 9.651660890951268 8.039178879981678 14.930471849452719 -2.5809868782827623 0.9682623273418557 41.1217574261956 -2.8388055214241112 1.2148084634154186 46.32790850003525 -16.909074248365588 -8.157253313800142 36.83215049829822 -3.4642990861849037 2.0796889491881454 61.94456843298798 -3.2838402588946303 1.7751786590576604 56.78031840463362 -0.818950202858618 -1.2767177401073375 20.962807492855607 -2.9976101267441964 1.3914931683235086 49.793781302675185 -3.4653453947469095 2.0816639625503948 61.97716806707653 -5.788003368792671 1.8620663671700477 32.41296293120416 -3.0588831897129487 1.4658037583806172 51.198844886785416 -3.173644584934074 1.61569783092778 53.952677188757725 -16.585610254970835 17.78763078062521 -1.5986118675939462 -11.740170715219026 5.153609238540881 -3.5226422385313905 -24.633908480306204 5.24681729267215 -24.380780693522517 11.362309614411693 -7.076166882925001 16.526431857336846 2.794199622011342 28.19290597611988 10.873486712571571 1.0353301773441788 -16.462652093890647 -5.729475612238495 0.0000031065085187020484 0.00564588173482638 0.0000057951359166921945 -1.628993899637856 3.3612789900091076 1.0422622686882048 4.138458322083031 22.16161512289544 3.131008304706274 -0.24295761138984354 -14.646882896778957 1.3971049170100278 0.0000028046061984967798 -2.0783553306629305 6.097456836772677e-7
0.15661706030368805 -0.2711500844034269 -0.0645909309387207 -7.227771825721953 -6.789266267944272 -5.417625597248407 1.7382093592047725 1.6853253900627407 1.5034989430625054 5.664046282847092 8.94911173566706 0.8918757476741029 0 0 0 -0.26473729946641433 -1.8220284517868834 4.7447476628251986 5.534515737546431 -4.874957255975746 2.2336799660316 0 0 0 0 0 0 15.763669855328498 -0.7959842605382047 -3.5193888981852632 -34.02202862886439 16.230639754348708 -56.11780052885636 -64.04202395982789 -6.877602818272734 5.224339844822202 4.917238134343675 18.16084328107555 3.9333670260613927 2.1351556812225936 4.245704741737161 -15.824551394911897 4.156564393557502 2.1244948342056187 -54.131878553023135 4.215893715545271 2.2082838833683236 -55.277535907082566 15.468945888593923 -10.430691927721679 -41.98633673774237 4.805235843470591 3.3332549389839277 -69.48154322973942 4.79688956289116 3.3111860077929123 -69.21812748459816 4.72447601540452 0.6477396330105641 -27.22624177789239 4.09280606833514 2.0383171808888263 -52.93632438301265 4.7333300205669575 3.1519742195620624 -67.3055447582377 6.492489532709186 2.2270705156561887 -42.39805988499482 4.1106963352573445 2.062110648651152 -53.26829499406143 4.64998180271947 2.9637376060964242 -65.008770337802 18.928547630102127 8.105047859325584 15.812177117577544 2.532344797228338 -3.3097821957646967 -1.9904998116255381 -7.019466098927664 -11.111197350057473 12.422456223007227 2.4658700276965497 -0.016812445849712955 20.563454980753534 23.380756358146225 -24.408262533470417 37.25946015749373 118.65607844245196 -6.034650136060319 -12.62007338002722 18.679849756710357 10.035965503627605 17.00376464060997 9.636423130794647 8.033572587197549 15.114790178047487 -2.5905833049337232 0.976656985160866 41.30754560561886 -2.847572218077384 1.2240189249792601 46.51340186201518 -16.87159024558796 -8.185931609807303 37.05054260206022 -3.4687394581137503 2.08804416754933 62.08279122189362 -3.2907822649481773 1.7858290779026096 56.965737248411166 -0.8263075625698315 -1.2868476311702581 21.14910855767621 -3.0058038521430985 1.401208048619006 49.97918322392057 -3.471338096471731 2.092943179571149 62.16363209249212 -5.749615285770849 1.8348114693702482 32.61441094162433 -3.065896223598784 1.474547678064119 51.36229194552779 -3.180601218911513 1.6252778009456335 54.125310374057236 -16.58726696109987 17.781827839886056 -1.6105729417354657 -11.740179108278681 5.153607952682271 -3.5226445914846756 -24.633871718184583 5.246798001937398 -24.380771468763683 11.433550320549239 -6.6420319106058034 16.466609420612915 3.0107826496405012 24.74259632263627 10.73622503023124 0.8134613373781626 -15.638012049260261 -4.651293213038713 7.42616326189157e-8 0.005654606234316436 -0.0000016481047101727554 -1.096283667620377 2.207071051469446 1.163509394937746 6.1314288455456625 18.827906152830057 3.18644820359061 -0.30093508234739547 -12.675471459237142 1.6177838851430815 0.000004677638001907438 -1.872170379748205 -9.590592901634333e-7
